{"accessors":[{"bufferView":0,"byteOffset":0,"componentType":5126,"count":113,"max":[1.5048879316734207,0.0,1.1999719815648504],"min":[0.925,0.0,0.6200280184351495],"type":"VEC3"},{"bufferView":0,"byteOffset":1356,"componentType":5126,"count":226,"max":[1.514884067248366,0.0,1.2099710154119143],"min":[0.915,0.0,0.6100289845880857],"type":"VEC3"},{"bufferView":0,"byteOffset":4068,"componentType":5126,"count":42,"max":[0.725,0.0,0.614986018985906],"min":[0.715,0.0,0.6050139810140941],"type":"VEC3"},{"bufferView":0,"byteOffset":4572,"componentType":5126,"count":42,"max":[0.725,0.0,1.214986018985906],"min":[0.715,0.0,1.205013981014094],"type":"VEC3"},{"bufferView":0,"byteOffset":5076,"componentType":5126,"count":42,"max":[1.715,0.0,1.214986018985906],"min":[1.705,0.0,1.205013981014094],"type":"VEC3"},{"bufferView":0,"byteOffset":5580,"componentType":5126,"count":42,"max":[1.715,0.0,0.614986018985906],"min":[1.705,0.0,0.6050139810140941],"type":"VEC3"},{"bufferView":0,"byteOffset":6084,"componentType":5126,"count":124,"max":[2.16,0.0,1.26],"min":[1.9100000000000001,0.0,0.56],"type":"VEC3"},{"bufferView":0,"byteOffset":7572,"componentType":5126,"count":62,"max":[2.16,0.0,1.24],"min":[1.93,0.0,0.58],"type":"VEC3"},{"bufferView":0,"byteOffset":8316,"componentType":5126,"count":62,"max":[0.5,0.0,1.24],"min":[0.27,0.0,0.58],"type":"VEC3"},{"bufferView":0,"byteOffset":9060,"componentType":5126,"count":124,"max":[0.52,0.0,1.26],"min":[0.27,0.0,0.56],"type":"VEC3"},{"bufferView":0,"byteOffset":10548,"componentType":5126,"count":409,"max":[2.16,0.0,1.55],"min":[0.27,0.0,0.27],"type":"VEC3"},{"bufferView":0,"byteOffset":15456,"componentType":5126,"count":16,"max":[2.18,0.0,1.57],"min":[0.25,0.0,0.25],"type":"VEC3"},{"bufferView":0,"byteOffset":15648,"componentType":5126,"count":8,"max":[2.33,0.0,1.72],"min":[0.1,0.0,0.1],"type":"VEC3"},{"bufferView":0,"byteOffset":15744,"componentType":5126,"count":4,"max":[2.48,0.0,1.87],"min":[2.48,-0.05,-0.05],"type":"VEC3"},{"bufferView":0,"byteOffset":15792,"componentType":5126,"count":4,"max":[2.48,0.0,-0.05],"min":[-0.05,-0.05,-0.05],"type":"VEC3"},{"bufferView":0,"byteOffset":15840,"componentType":5126,"count":4,"max":[-0.05,0.0,1.87],"min":[-0.05,-0.05,-0.05],"type":"VEC3"},{"bufferView":0,"byteOffset":15888,"componentType":5126,"count":4,"max":[2.48,0.0,1.87],"min":[-0.05,-0.05,1.87],"type":"VEC3"},{"bufferView":0,"byteOffset":15936,"componentType":5126,"count":8,"max":[2.48,0.0,1.87],"min":[-0.05,0.0,-0.05],"type":"VEC3"},{"bufferView":0,"byteOffset":16032,"componentType":5126,"count":4,"max":[2.48,-0.05,1.87],"min":[-0.05,-0.05,-0.05],"type":"VEC3"},{"bufferView":0,"byteOffset":16080,"componentType":5126,"count":4,"max":[2.43,0.22,1.82],"min":[2.43,0.0,0.0],"type":"VEC3"},{"bufferView":0,"byteOffset":16128,"componentType":5126,"count":4,"max":[2.43,0.22,0.0],"min":[0.0,0.0,0.0],"type":"VEC3"},{"bufferView":0,"byteOffset":16176,"componentType":5126,"count":4,"max":[0.0,0.22,1.82],"min":[0.0,0.0,0.0],"type":"VEC3"},{"bufferView":0,"byteOffset":16224,"componentType":5126,"count":4,"max":[2.43,0.22,1.82],"min":[0.0,0.0,1.82],"type":"VEC3"},{"bufferView":0,"byteOffset":16272,"componentType":5126,"count":4,"max":[-0.05,0.22,1.87],"min":[-0.05,0.0,-0.05],"type":"VEC3"},{"bufferView":0,"byteOffset":16320,"componentType":5126,"count":4,"max":[2.48,0.22,-0.05],"min":[-0.05,0.0,-0.05],"type":"VEC3"},{"bufferView":0,"byteOffset":16368,"componentType":5126,"count":4,"max":[2.48,0.22,1.87],"min":[2.48,0.0,-0.05],"type":"VEC3"},{"bufferView":0,"byteOffset":16416,"componentType":5126,"count":4,"max":[2.48,0.22,1.87],"min":[-0.05,0.0,1.87],"type":"VEC3"},{"bufferView":0,"byteOffset":16464,"componentType":5126,"count":8,"max":[2.48,0.22,1.87],"min":[-0.05,0.22,-0.05],"type":"VEC3"},{"bufferView":0,"byteOffset":16560,"componentType":5126,"count":8,"max":[2.48,0.0,1.87],"min":[-0.05,0.0,-0.05],"type":"VEC3"},{"bufferView":0,"byteOffset":16656,"componentType":5126,"count":4,"max":[0.25,0.1,0.61],"min":[0.176,0.0,0.61],"type":"VEC3"},{"bufferView":0,"byteOffset":16704,"componentType":5126,"count":4,"max":[0.176,0.1,1.21],"min":[0.176,0.0,0.61],"type":"VEC3"},{"bufferView":0,"byteOffset":16752,"componentType":5126,"count":4,"max":[0.25,0.1,1.21],"min":[0.176,0.0,1.21],"type":"VEC3"},{"bufferView":0,"byteOffset":16800,"componentType":5126,"count":4,"max":[0.25,0.1,1.22],"min":[0.25,0.0,1.21],"type":"VEC3"},{"bufferView":0,"byteOffset":16848,"componentType":5126,"count":4,"max":[0.25,0.1,1.22],"min":[0.166,0.0,1.22],"type":"VEC3"},{"bufferView":0,"byteOffset":16896,"componentType":5126,"count":4,"max":[0.166,0.1,1.22],"min":[0.166,0.0,0.6],"type":"VEC3"},{"bufferView":0,"byteOffset":16944,"componentType":5126,"count":4,"max":[0.25,0.1,0.6],"min":[0.166,0.0,0.6],"type":"VEC3"},{"bufferView":0,"byteOffset":16992,"componentType":5126,"count":4,"max":[0.25,0.1,0.61],"min":[0.25,0.0,0.6],"type":"VEC3"},{"bufferView":0,"byteOffset":17040,"componentType":5126,"count":8,"max":[0.25,0.1,1.22],"min":[0.166,0.1,0.6],"type":"VEC3"},{"bufferView":0,"byteOffset":17136,"componentType":5126,"count":8,"max":[0.25,0.0,1.22],"min":[0.166,0.0,0.6],"type":"VEC3"},{"bufferView":0,"byteOffset":17232,"componentType":5126,"count":4,"max":[2.254,0.1,1.21],"min":[2.18,0.0,1.21],"type":"VEC3"},{"bufferView":0,"byteOffset":17280,"componentType":5126,"count":4,"max":[2.254,0.1,1.21],"min":[2.254,0.0,0.61],"type":"VEC3"},{"bufferView":0,"byteOffset":17328,"componentType":5126,"count":4,"max":[2.254,0.1,0.61],"min":[2.18,0.0,0.61],"type":"VEC3"},{"bufferView":0,"byteOffset":17376,"componentType":5126,"count":4,"max":[2.18,0.1,0.61],"min":[2.18,0.0,0.6],"type":"VEC3"},{"bufferView":0,"byteOffset":17424,"componentType":5126,"count":4,"max":[2.2640000000000002,0.1,0.6],"min":[2.18,0.0,0.6],"type":"VEC3"},{"bufferView":0,"byteOffset":17472,"componentType":5126,"count":4,"max":[2.2640000000000002,0.1,1.22],"min":[2.2640000000000002,0.0,0.6],"type":"VEC3"},{"bufferView":0,"byteOffset":17520,"componentType":5126,"count":4,"max":[2.2640000000000002,0.1,1.22],"min":[2.18,0.0,1.22],"type":"VEC3"},{"bufferView":0,"byteOffset":17568,"componentType":5126,"count":4,"max":[2.18,0.1,1.22],"min":[2.18,0.0,1.21],"type":"VEC3"},{"bufferView":0,"byteOffset":17616,"componentType":5126,"count":8,"max":[2.2640000000000002,0.1,1.22],"min":[2.18,0.1,0.6],"type":"VEC3"},{"bufferView":0,"byteOffset":17712,"componentType":5126,"count":8,"max":[2.2640000000000002,0.0,1.22],"min":[2.18,0.0,0.6],"type":"VEC3"},{"bufferView":0,"byteOffset":17808,"componentType":5126,"count":4,"max":[2.43,0.02,1.82],"min":[0.0,0.0,1.72],"type":"VEC3"},{"bufferView":0,"byteOffset":17856,"componentType":5126,"count":4,"max":[2.43,0.02,1.82],"min":[2.33,0.0,0.0],"type":"VEC3"},{"bufferView":0,"byteOffset":17904,"componentType":5126,"count":4,"max":[2.43,0.02,0.1],"min":[0.0,0.0,0.0],"type":"VEC3"},{"bufferView":0,"byteOffset":17952,"componentType":5126,"count":4,"max":[0.1,0.02,1.82],"min":[0.0,0.0,0.0],"type":"VEC3"},{"bufferView":0,"byteOffset":18000,"componentType":5126,"count":4,"max":[0.0,0.02,1.82],"min":[0.0,0.0,0.0],"type":"VEC3"},{"bufferView":0,"byteOffset":18048,"componentType":5126,"count":4,"max":[2.43,0.02,0.0],"min":[0.0,0.0,0.0],"type":"VEC3"},{"bufferView":0,"byteOffset":18096,"componentType":5126,"count":4,"max":[2.43,0.02,1.82],"min":[2.43,0.0,0.0],"type":"VEC3"},{"bufferView":0,"byteOffset":18144,"componentType":5126,"count":4,"max":[2.43,0.02,1.82],"min":[0.0,0.0,1.82],"type":"VEC3"},{"bufferView":0,"byteOffset":18192,"componentType":5126,"count":8,"max":[2.43,0.0,1.82],"min":[0.0,0.0,0.0],"type":"VEC3"},{"bufferView":1,"byteOffset":0,"componentType":5126,"count":113,"type":"VEC3"},{"bufferView":1,"byteOffset":1356,"componentType":5126,"count":226,"type":"VEC3"},{"bufferView":1,"byteOffset":4068,"componentType":5126,"count":42,"type":"VEC3"},{"bufferView":1,"byteOffset":4572,"componentType":5126,"count":42,"type":"VEC3"},{"bufferView":1,"byteOffset":5076,"componentType":5126,"count":42,"type":"VEC3"},{"bufferView":1,"byteOffset":5580,"componentType":5126,"count":42,"type":"VEC3"},{"bufferView":1,"byteOffset":6084,"componentType":5126,"count":124,"type":"VEC3"},{"bufferView":1,"byteOffset":7572,"componentType":5126,"count":62,"type":"VEC3"},{"bufferView":1,"byteOffset":8316,"componentType":5126,"count":62,"type":"VEC3"},{"bufferView":1,"byteOffset":9060,"componentType":5126,"count":124,"type":"VEC3"},{"bufferView":1,"byteOffset":10548,"componentType":5126,"count":409,"type":"VEC3"},{"bufferView":1,"byteOffset":15456,"componentType":5126,"count":16,"type":"VEC3"},{"bufferView":1,"byteOffset":15648,"componentType":5126,"count":8,"type":"VEC3"},{"bufferView":1,"byteOffset":15744,"componentType":5126,"count":4,"type":"VEC3"},{"bufferView":1,"byteOffset":15792,"componentType":5126,"count":4,"type":"VEC3"},{"bufferView":1,"byteOffset":15840,"componentType":5126,"count":4,"type":"VEC3"},{"bufferView":1,"byteOffset":15888,"componentType":5126,"count":4,"type":"VEC3"},{"bufferView":1,"byteOffset":15936,"componentType":5126,"count":8,"type":"VEC3"},{"bufferView":1,"byteOffset":16032,"componentType":5126,"count":4,"type":"VEC3"},{"bufferView":1,"byteOffset":16080,"componentType":5126,"count":4,"type":"VEC3"},{"bufferView":1,"byteOffset":16128,"componentType":5126,"count":4,"type":"VEC3"},{"bufferView":1,"byteOffset":16176,"componentType":5126,"count":4,"type":"VEC3"},{"bufferView":1,"byteOffset":16224,"componentType":5126,"count":4,"type":"VEC3"},{"bufferView":1,"byteOffset":16272,"componentType":5126,"count":4,"type":"VEC3"},{"bufferView":1,"byteOffset":16320,"componentType":5126,"count":4,"type":"VEC3"},{"bufferView":1,"byteOffset":16368,"componentType":5126,"count":4,"type":"VEC3"},{"bufferView":1,"byteOffset":16416,"componentType":5126,"count":4,"type":"VEC3"},{"bufferView":1,"byteOffset":16464,"componentType":5126,"count":8,"type":"VEC3"},{"bufferView":1,"byteOffset":16560,"componentType":5126,"count":8,"type":"VEC3"},{"bufferView":1,"byteOffset":16656,"componentType":5126,"count":4,"type":"VEC3"},{"bufferView":1,"byteOffset":16704,"componentType":5126,"count":4,"type":"VEC3"},{"bufferView":1,"byteOffset":16752,"componentType":5126,"count":4,"type":"VEC3"},{"bufferView":1,"byteOffset":16800,"componentType":5126,"count":4,"type":"VEC3"},{"bufferView":1,"byteOffset":16848,"componentType":5126,"count":4,"type":"VEC3"},{"bufferView":1,"byteOffset":16896,"componentType":5126,"count":4,"type":"VEC3"},{"bufferView":1,"byteOffset":16944,"componentType":5126,"count":4,"type":"VEC3"},{"bufferView":1,"byteOffset":16992,"componentType":5126,"count":4,"type":"VEC3"},{"bufferView":1,"byteOffset":17040,"componentType":5126,"count":8,"type":"VEC3"},{"bufferView":1,"byteOffset":17136,"componentType":5126,"count":8,"type":"VEC3"},{"bufferView":1,"byteOffset":17232,"componentType":5126,"count":4,"type":"VEC3"},{"bufferView":1,"byteOffset":17280,"componentType":5126,"count":4,"type":"VEC3"},{"bufferView":1,"byteOffset":17328,"componentType":5126,"count":4,"type":"VEC3"},{"bufferView":1,"byteOffset":17376,"componentType":5126,"count":4,"type":"VEC3"},{"bufferView":1,"byteOffset":17424,"componentType":5126,"count":4,"type":"VEC3"},{"bufferView":1,"byteOffset":17472,"componentType":5126,"count":4,"type":"VEC3"},{"bufferView":1,"byteOffset":17520,"componentType":5126,"count":4,"type":"VEC3"},{"bufferView":1,"byteOffset":17568,"componentType":5126,"count":4,"type":"VEC3"},{"bufferView":1,"byteOffset":17616,"componentType":5126,"count":8,"type":"VEC3"},{"bufferView":1,"byteOffset":17712,"componentType":5126,"count":8,"type":"VEC3"},{"bufferView":1,"byteOffset":17808,"componentType":5126,"count":4,"type":"VEC3"},{"bufferView":1,"byteOffset":17856,"componentType":5126,"count":4,"type":"VEC3"},{"bufferView":1,"byteOffset":17904,"componentType":5126,"count":4,"type":"VEC3"},{"bufferView":1,"byteOffset":17952,"componentType":5126,"count":4,"type":"VEC3"},{"bufferView":1,"byteOffset":18000,"componentType":5126,"count":4,"type":"VEC3"},{"bufferView":1,"byteOffset":18048,"componentType":5126,"count":4,"type":"VEC3"},{"bufferView":1,"byteOffset":18096,"componentType":5126,"count":4,"type":"VEC3"},{"bufferView":1,"byteOffset":18144,"componentType":5126,"count":4,"type":"VEC3"},{"bufferView":1,"byteOffset":18192,"componentType":5126,"count":8,"type":"VEC3"},{"bufferView":2,"byteOffset":0,"componentType":5123,"count":333,"type":"SCALAR"},{"bufferView":2,"byteOffset":668,"componentType":5123,"count":678,"type":"SCALAR"},{"bufferView":2,"byteOffset":2024,"componentType":5123,"count":120,"type":"SCALAR"},{"bufferView":2,"byteOffset":2264,"componentType":5123,"count":120,"type":"SCALAR"},{"bufferView":2,"byteOffset":2504,"componentType":5123,"count":120,"type":"SCALAR"},{"bufferView":2,"byteOffset":2744,"componentType":5123,"count":120,"type":"SCALAR"},{"bufferView":2,"byteOffset":2984,"componentType":5123,"count":366,"type":"SCALAR"},{"bufferView":2,"byteOffset":3716,"componentType":5123,"count":180,"type":"SCALAR"},{"bufferView":2,"byteOffset":4076,"componentType":5123,"count":180,"type":"SCALAR"},{"bufferView":2,"byteOffset":4436,"componentType":5123,"count":366,"type":"SCALAR"},{"bufferView":2,"byteOffset":5168,"componentType":5123,"count":1251,"type":"SCALAR"},{"bufferView":2,"byteOffset":7672,"componentType":5123,"count":48,"type":"SCALAR"},{"bufferView":2,"byteOffset":7768,"componentType":5123,"count":24,"type":"SCALAR"},{"bufferView":2,"byteOffset":7816,"componentType":5123,"count":6,"type":"SCALAR"},{"bufferView":2,"byteOffset":7828,"componentType":5123,"count":6,"type":"SCALAR"},{"bufferView":2,"byteOffset":7840,"componentType":5123,"count":6,"type":"SCALAR"},{"bufferView":2,"byteOffset":7852,"componentType":5123,"count":6,"type":"SCALAR"},{"bufferView":2,"byteOffset":7864,"componentType":5123,"count":24,"type":"SCALAR"},{"bufferView":2,"byteOffset":7912,"componentType":5123,"count":6,"type":"SCALAR"},{"bufferView":2,"byteOffset":7924,"componentType":5123,"count":6,"type":"SCALAR"},{"bufferView":2,"byteOffset":7936,"componentType":5123,"count":6,"type":"SCALAR"},{"bufferView":2,"byteOffset":7948,"componentType":5123,"count":6,"type":"SCALAR"},{"bufferView":2,"byteOffset":7960,"componentType":5123,"count":6,"type":"SCALAR"},{"bufferView":2,"byteOffset":7972,"componentType":5123,"count":6,"type":"SCALAR"},{"bufferView":2,"byteOffset":7984,"componentType":5123,"count":6,"type":"SCALAR"},{"bufferView":2,"byteOffset":7996,"componentType":5123,"count":6,"type":"SCALAR"},{"bufferView":2,"byteOffset":8008,"componentType":5123,"count":6,"type":"SCALAR"},{"bufferView":2,"byteOffset":8020,"componentType":5123,"count":24,"type":"SCALAR"},{"bufferView":2,"byteOffset":8068,"componentType":5123,"count":24,"type":"SCALAR"},{"bufferView":2,"byteOffset":8116,"componentType":5123,"count":6,"type":"SCALAR"},{"bufferView":2,"byteOffset":8128,"componentType":5123,"count":6,"type":"SCALAR"},{"bufferView":2,"byteOffset":8140,"componentType":5123,"count":6,"type":"SCALAR"},{"bufferView":2,"byteOffset":8152,"componentType":5123,"count":6,"type":"SCALAR"},{"bufferView":2,"byteOffset":8164,"componentType":5123,"count":6,"type":"SCALAR"},{"bufferView":2,"byteOffset":8176,"componentType":5123,"count":6,"type":"SCALAR"},{"bufferView":2,"byteOffset":8188,"componentType":5123,"count":6,"type":"SCALAR"},{"bufferView":2,"byteOffset":8200,"componentType":5123,"count":6,"type":"SCALAR"},{"bufferView":2,"byteOffset":8212,"componentType":5123,"count":18,"type":"SCALAR"},{"bufferView":2,"byteOffset":8248,"componentType":5123,"count":18,"type":"SCALAR"},{"bufferView":2,"byteOffset":8284,"componentType":5123,"count":6,"type":"SCALAR"},{"bufferView":2,"byteOffset":8296,"componentType":5123,"count":6,"type":"SCALAR"},{"bufferView":2,"byteOffset":8308,"componentType":5123,"count":6,"type":"SCALAR"},{"bufferView":2,"byteOffset":8320,"componentType":5123,"count":6,"type":"SCALAR"},{"bufferView":2,"byteOffset":8332,"componentType":5123,"count":6,"type":"SCALAR"},{"bufferView":2,"byteOffset":8344,"componentType":5123,"count":6,"type":"SCALAR"},{"bufferView":2,"byteOffset":8356,"componentType":5123,"count":6,"type":"SCALAR"},{"bufferView":2,"byteOffset":8368,"componentType":5123,"count":6,"type":"SCALAR"},{"bufferView":2,"byteOffset":8380,"componentType":5123,"count":18,"type":"SCALAR"},{"bufferView":2,"byteOffset":8416,"componentType":5123,"count":18,"type":"SCALAR"},{"bufferView":2,"byteOffset":8452,"componentType":5123,"count":6,"type":"SCALAR"},{"bufferView":2,"byteOffset":8464,"componentType":5123,"count":6,"type":"SCALAR"},{"bufferView":2,"byteOffset":8476,"componentType":5123,"count":6,"type":"SCALAR"},{"bufferView":2,"byteOffset":8488,"componentType":5123,"count":6,"type":"SCALAR"},{"bufferView":2,"byteOffset":8500,"componentType":5123,"count":6,"type":"SCALAR"},{"bufferView":2,"byteOffset":8512,"componentType":5123,"count":6,"type":"SCALAR"},{"bufferView":2,"byteOffset":8524,"componentType":5123,"count":6,"type":"SCALAR"},{"bufferView":2,"byteOffset":8536,"componentType":5123,"count":6,"type":"SCALAR"},{"bufferView":2,"byteOffset":8548,"componentType":5123,"count":24,"type":"SCALAR"}],"asset":{"generator":"Open CASCADE Technology 7.8 [dev.opencascade.org]","version":"2.0"},"bufferViews":[{"buffer":0,"byteLength":18288,"byteOffset":0,"byteStride":12,"target":34962},{"buffer":0,"byteLength":18288,"byteOffset":18288,"byteStride":12,"target":34962},{"buffer":0,"byteLength":8596,"byteOffset":36576,"target":34963}],"buffers":[{"byteLength":45172,"uri":"RCJ-court.bin"}],"materials":[{"name":"mat_0","pbrMetallicRoughness":{"baseColorFactor":[0.0018211619462817907,0.30946895480155945,0.07618539035320282,1.0]},"doubleSided":true},{"name":"mat_1","pbrMetallicRoughness":{"baseColorFactor":[0.009721217676997185,0.009721217676997185,0.009721217676997185,1.0]},"doubleSided":true},{"name":"mat_2","pbrMetallicRoughness":{"baseColorFactor":[0.9215818643569946,0.9215818643569946,0.8962693810462952,1.0]},"doubleSided":true},{"name":"mat_3","pbrMetallicRoughness":{"baseColorFactor":[1.0,0.9646862745285034,0.0,1.0]},"doubleSided":true},{"name":"mat_4","pbrMetallicRoughness":{"baseColorFactor":[0.0,0.09989873319864273,1.0,1.0]},"doubleSided":true}],"meshes":[{"name":"\\X2\\30B330FC30C8\\X0\\ v14","primitives":[{"attributes":{"NORMAL":58,"POSITION":0},"indices":116,"material":0,"mode":4},{"attributes":{"NORMAL":59,"POSITION":1},"indices":117,"material":1,"mode":4},{"attributes":{"NORMAL":60,"POSITION":2},"indices":118,"material":1,"mode":4},{"attributes":{"NORMAL":61,"POSITION":3},"indices":119,"material":1,"mode":4},{"attributes":{"NORMAL":62,"POSITION":4},"indices":120,"material":1,"mode":4},{"attributes":{"NORMAL":63,"POSITION":5},"indices":121,"material":1,"mode":4},{"attributes":{"NORMAL":64,"POSITION":6},"indices":122,"material":2,"mode":4},{"attributes":{"NORMAL":65,"POSITION":7},"indices":123,"material":0,"mode":4},{"attributes":{"NORMAL":66,"POSITION":8},"indices":124,"material":0,"mode":4},{"attributes":{"NORMAL":67,"POSITION":9},"indices":125,"material":2,"mode":4},{"attributes":{"NORMAL":68,"POSITION":10},"indices":126,"material":0,"mode":4},{"attributes":{"NORMAL":69,"POSITION":11},"indices":127,"material":2,"mode":4},{"attributes":{"NORMAL":70,"POSITION":12},"indices":128,"material":0,"mode":4},{"attributes":{"NORMAL":71,"POSITION":13},"indices":129,"material":1,"mode":4},{"attributes":{"NORMAL":72,"POSITION":14},"indices":130,"material":1,"mode":4},{"attributes":{"NORMAL":73,"POSITION":15},"indices":131,"material":1,"mode":4},{"attributes":{"NORMAL":74,"POSITION":16},"indices":132,"material":1,"mode":4},{"attributes":{"NORMAL":75,"POSITION":17},"indices":133,"material":1,"mode":4},{"attributes":{"NORMAL":76,"POSITION":18},"indices":134,"material":1,"mode":4}]},{"name":"\\X2\\30B330FC30C8\\X0\\ v001","primitives":[{"attributes":{"NORMAL":77,"POSITION":19},"indices":135,"material":1,"mode":4},{"attributes":{"NORMAL":78,"POSITION":20},"indices":136,"material":1,"mode":4},{"attributes":{"NORMAL":79,"POSITION":21},"indices":137,"material":1,"mode":4},{"attributes":{"NORMAL":80,"POSITION":22},"indices":138,"material":1,"mode":4},{"attributes":{"NORMAL":81,"POSITION":23},"indices":139,"material":1,"mode":4},{"attributes":{"NORMAL":82,"POSITION":24},"indices":140,"material":1,"mode":4},{"attributes":{"NORMAL":83,"POSITION":25},"indices":141,"material":1,"mode":4},{"attributes":{"NORMAL":84,"POSITION":26},"indices":142,"material":1,"mode":4},{"attributes":{"NORMAL":85,"POSITION":27},"indices":143,"material":1,"mode":4},{"attributes":{"NORMAL":86,"POSITION":28},"indices":144,"material":1,"mode":4}]},{"name":"\\X2\\30B330FC30C8\\X0\\ v002","primitives":[{"attributes":{"NORMAL":87,"POSITION":29},"indices":145,"material":3,"mode":4},{"attributes":{"NORMAL":88,"POSITION":30},"indices":146,"material":3,"mode":4},{"attributes":{"NORMAL":89,"POSITION":31},"indices":147,"material":3,"mode":4},{"attributes":{"NORMAL":90,"POSITION":32},"indices":148,"material":3,"mode":4},{"attributes":{"NORMAL":91,"POSITION":33},"indices":149,"material":3,"mode":4},{"attributes":{"NORMAL":92,"POSITION":34},"indices":150,"material":3,"mode":4},{"attributes":{"NORMAL":93,"POSITION":35},"indices":151,"material":3,"mode":4},{"attributes":{"NORMAL":94,"POSITION":36},"indices":152,"material":3,"mode":4},{"attributes":{"NORMAL":95,"POSITION":37},"indices":153,"material":3,"mode":4},{"attributes":{"NORMAL":96,"POSITION":38},"indices":154,"material":3,"mode":4}]},{"name":"\\X2\\30B330FC30C8\\X0\\ v003","primitives":[{"attributes":{"NORMAL":97,"POSITION":39},"indices":155,"material":4,"mode":4},{"attributes":{"NORMAL":98,"POSITION":40},"indices":156,"material":4,"mode":4},{"attributes":{"NORMAL":99,"POSITION":41},"indices":157,"material":4,"mode":4},{"attributes":{"NORMAL":100,"POSITION":42},"indices":158,"material":4,"mode":4},{"attributes":{"NORMAL":101,"POSITION":43},"indices":159,"material":4,"mode":4},{"attributes":{"NORMAL":102,"POSITION":44},"indices":160,"material":4,"mode":4},{"attributes":{"NORMAL":103,"POSITION":45},"indices":161,"material":4,"mode":4},{"attributes":{"NORMAL":104,"POSITION":46},"indices":162,"material":4,"mode":4},{"attributes":{"NORMAL":105,"POSITION":47},"indices":163,"material":4,"mode":4},{"attributes":{"NORMAL":106,"POSITION":48},"indices":164,"material":4,"mode":4}]},{"name":"\\X2\\30B330FC30C8\\X0\\ v004","primitives":[{"attributes":{"NORMAL":107,"POSITION":49},"indices":165,"material":0,"mode":4},{"attributes":{"NORMAL":108,"POSITION":50},"indices":166,"material":0,"mode":4},{"attributes":{"NORMAL":109,"POSITION":51},"indices":167,"material":0,"mode":4},{"attributes":{"NORMAL":110,"POSITION":52},"indices":168,"material":0,"mode":4},{"attributes":{"NORMAL":111,"POSITION":53},"indices":169,"material":0,"mode":4},{"attributes":{"NORMAL":112,"POSITION":54},"indices":170,"material":0,"mode":4},{"attributes":{"NORMAL":113,"POSITION":55},"indices":171,"material":0,"mode":4},{"attributes":{"NORMAL":114,"POSITION":56},"indices":172,"material":0,"mode":4},{"attributes":{"NORMAL":115,"POSITION":57},"indices":173,"material":0,"mode":4}]}],"nodes":[{"children":[1,2,3,4,5],"name":"\\X2\\30B330FC30C8\\X0\\ v005"},{"mesh":0,"name":"\\X2\\30B330FC30C8\\X0\\ v14"},{"mesh":1,"name":"\\X2\\30B330FC30C8\\X0\\ v001"},{"mesh":2,"name":"\\X2\\30B330FC30C8\\X0\\ v002"},{"mesh":3,"name":"\\X2\\30B330FC30C8\\X0\\ v003"},{"mesh":4,"name":"\\X2\\30B330FC30C8\\X0\\ v004"}],"scene":0,"scenes":[{"nodes":[0]}]}